<svg id="Lager_1" data-name="Lager 1" xmlns="http://www.w3.org/2000/svg" viewBox="0 0 270 58.94"><defs><style>.cls-1{fill:#328953;}</style></defs><title>DeromeTimber_RGB</title><path class="cls-1" d="M178.57,424.06H162.64l18.06-32.59h17.19c15.44,0,23.12,3.86,16.33,16.11S196,424.06,178.57,424.06Zm15-24.86h-3.37l-9.5,17.13h2.95c8.49,0,13-2.14,16.56-8.61C203.51,401.72,202,399.2,193.54,399.2Z" transform="translate(-162.64 -391.48)"/><path class="cls-1" d="M251.16,414.24H229.55c-1.07,2.7.64,3.91,4.08,3.91a35.54,35.54,0,0,0,10.5-1.72l1.87,5.35a53.18,53.18,0,0,1-16.56,2.79c-11.09,0-14.3-5.21-10.15-12.71,4.67-8.43,14.23-12.76,23.91-12.76,10.1,0,14,4.42,8.94,13.5A17.34,17.34,0,0,1,251.16,414.24Zm-11.75-8.94a8.33,8.33,0,0,0-7,3.72H243C243.7,406.56,243.14,405.3,239.42,405.3Z" transform="translate(-162.64 -391.48)"/><path class="cls-1" d="M285.87,408.84a5.63,5.63,0,0,0-4.76-2c-3.09,0-5.52,1-7.18,4l-7.38,13.31H253.93l13.55-24.44h12.63l-1,1.77a21,21,0,0,1,9.12-2.28,11.21,11.21,0,0,1,5.4,1Z" transform="translate(-162.64 -391.48)"/><path class="cls-1" d="M302.83,424.58c-10.17,0-15.07-4.33-10.4-12.76s14.34-12.71,24.52-12.71,15.22,4.19,10.5,12.71S313,424.58,302.83,424.58Zm10.35-18.67c-3.3,0-6,1.77-8.26,5.91s-1.62,6,1.68,6,6-1.91,8.28-6S316.48,405.91,313.18,405.91Z" transform="translate(-162.64 -391.48)"/><path class="cls-1" d="M370.27,424.06L378,410.19c1.75-3.17.75-4-1.78-4s-4.53.84-6.24,3.91l-7.74,14H349.57l7.69-13.87c1.75-3.17.68-4-1.85-4s-4.53.84-6.24,3.91l-7.74,14H328.8l13.55-24.44H355l-0.9,1.63a25.25,25.25,0,0,1,10-2.14c5.05,0,7.27,1.07,8.65,2.75a30.13,30.13,0,0,1,12.26-2.75c8.28,0,9.87,3.58,6.31,10L383,424.06h-12.7Z" transform="translate(-162.64 -391.48)"/><path class="cls-1" d="M429.47,414.24H407.85c-1.08,2.7.64,3.91,4.08,3.91a35.54,35.54,0,0,0,10.5-1.72l1.87,5.35a53.17,53.17,0,0,1-16.56,2.79c-11.09,0-14.3-5.21-10.15-12.71,4.67-8.43,14.23-12.76,23.91-12.76,10.11,0,14,4.42,8.94,13.5A16.88,16.88,0,0,1,429.47,414.24Zm-11.75-8.94a8.34,8.34,0,0,0-7,3.72h10.53C422,406.56,421.44,405.3,417.72,405.3Z" transform="translate(-162.64 -391.48)"/><path d="M380.12,440.56v9.66h-2.41v-9.66h-3.46v-2.37h9.32v2.37h-3.46Z" transform="translate(-162.64 -391.48)"/><path d="M387.2,440.46a1.36,1.36,0,1,1,1.36-1.36A1.37,1.37,0,0,1,387.2,440.46ZM386,450.22v-9h2.37v9H386Z" transform="translate(-162.64 -391.48)"/><path d="M401.76,450.22v-4.88c0-1.62-.46-2.1-1.44-2.1s-1.46.48-1.46,2v4.93h-2.37v-4.88c0-1.62-.46-2.1-1.44-2.1s-1.46.48-1.46,2v4.93h-2.37v-9h2.37v0.6a2.61,2.61,0,0,1,2-.79,2.82,2.82,0,0,1,2.49,1.15,3.59,3.59,0,0,1,2.87-1.15c2.3,0,3.22,1.58,3.22,4.13v5.09h-2.37Z" transform="translate(-162.64 -391.48)"/><path d="M411.07,450.41a2.86,2.86,0,0,1-1.91-.7v0.51h-2.37V438.88l2.37-1.19v4.07a2.78,2.78,0,0,1,1.91-.76c1.93,0,3.51,1.44,3.51,4.81C414.57,448.52,413.3,450.41,411.07,450.41Zm-0.45-7.17a1.66,1.66,0,0,0-1.46.76v3.4a1.89,1.89,0,0,0,1.6.77c0.91,0,1.41-.79,1.41-2.3C412.17,444,411.55,443.24,410.62,443.24Z" transform="translate(-162.64 -391.48)"/><path d="M424.2,446.48h-5.4a1.74,1.74,0,0,0,1.86,1.7,2,2,0,0,0,1.55-.64l1.68,1.41a4.21,4.21,0,0,1-3.23,1.46c-2.6,0-4.25-1.84-4.25-4.69s1.74-4.71,4-4.71,3.8,2.13,3.8,4.71A7.43,7.43,0,0,1,424.2,446.48Zm-3.89-3.4a1.57,1.57,0,0,0-1.48,1.62h3.1A1.6,1.6,0,0,0,420.32,443.07Z" transform="translate(-162.64 -391.48)"/><path d="M431.84,444a2,2,0,0,0-1.38-.58c-0.93,0-1.53.39-1.53,2v4.88h-2.37v-9h2.37v0.6a2.5,2.5,0,0,1,1.86-.79,2.3,2.3,0,0,1,1.67.64Z" transform="translate(-162.64 -391.48)"/></svg>